:SAMPLES-PER-SECOND 30
:FULLY-SPECIFIED
:DEGREES
456
root  38.8341 31.0908 -56.8517 -177.952 -40.1652 -170.353
RightUpLeg  -21.6517 3.2079 -7.09034
RightLeg  64.3981 -3.31621 -6.00166
RightFoot  2.06812 0.00925546 -0.135178
RightToes  -33.1521 -0.166218 -0.273266
Spine  5.21935 -0.425631 2.28968
Spine1  10.2142 -0.129187 2.37694
HEad  38.2932 17.5239 -3.28278
LeftShoulder1  0 -2.42657e-020 -4.95415e-022
LeftArm  -19.4821 15.4478 -80.1184
LeftForeArm  -137.208 -25.881 -4.48602
LeftHand  8.79903 -26.8089 -36.1621
RightShoulder  0 2.42657e-020 1.07489e-018
RightArm  -73.0877 13.9298 55.2948
RightForeArm  5.88714 53.5141 13.8135
RightHand  3.83686 24.4198 17.9728
LeftUpLeg  -9.91995 -0.735383 -15.6467
LeftLeg  30.8276 3.64359 1.86245
LeftFoot  -19.5426 -0.25734 -1.49422
LeftToes  30.9284 1.18758e-006 1.19596e-007
457
root  37.5121 31.7984 -58.6567 -179.046 -44.2191 -168.154
RightUpLeg  -24.9609 3.83594 -5.65666
RightLeg  54.6975 -6.12063 -7.56232
RightFoot  -0.634301 -0.00120345 0.160314
RightToes  -31.4882 -0.154302 -0.262175
Spine  4.87673 -1.75961 2.80287
Spine1  9.55493 -2.89734 3.2797
HEad  38.2994 20.3278 -3.53718
LeftShoulder1  0 -2.42657e-020 -4.95415e-022
LeftArm  -15.1937 15.3839 -80.9383
LeftForeArm  -140.642 -29.0137 -5.17396
LeftHand  8.92512 -27.0499 -36.3299
RightShoulder  0 2.42657e-020 1.07489e-018
RightArm  -68.8958 13.7424 57.678
RightForeArm  10.989 58.6407 16.8687
RightHand  3.34628 24.7957 15.5119
LeftUpLeg  -4.37151 -1.73981 -13.0804
LeftLeg  26.406 2.50062 1.04362
LeftFoot  -14.7365 -0.101911 -0.788086
LeftToes  28.4954 1.18758e-006 1.19596e-007
458
root  36.1458 32.3656 -60.4469 179.912 -48.1759 -165.6
RightUpLeg  -26.4722 5.0813 -4.89182
RightLeg  40.4491 -9.6406 -7.1504
RightFoot  -2.51384 0.00314309 0.520945
RightToes  -30.5537 -0.147752 -0.255796
Spine  4.54684 -3.02673 3.2169
Spine1  8.89424 -5.52596 4.0159
HEad  37.2343 23.1386 -3.38887
LeftShoulder1  0 -2.42657e-020 -4.95415e-022
LeftArm  -11.7702 15.2251 -81.4726
LeftForeArm  -142.935 -32.1831 -5.9161
LeftHand  9.14259 -27.1149 -37.0658
RightShoulder  0 2.42657e-020 1.07489e-018
RightArm  -63.4567 12.8037 60.7576
RightForeArm  17.9545 64.1406 21.4348
RightHand  2.68777 25.0032 12.4525
LeftUpLeg  -0.246177 -3.15312 -10.3041
LeftLeg  23.3544 1.66658 0.592921
LeftFoot  -9.51916 -0.0302024 -0.362747
LeftToes  26.0845 1.18758e-006 1.19596e-007
459
root  34.7382 32.6269 -62.226 179.601 -50.6141 -163.949
RightUpLeg  -27.5216 7.68124 -5.7041
RightLeg  24.2978 -10.5575 -3.94324
RightFoot  -3.14817 0.00537425 0.573246
RightToes  -30.2225 -0.145456 -0.253509
Spine  4.23808 -3.74641 3.39189
Spine1  8.2474 -7.08122 4.47715
HEad  35.8196 25.311 -4.0695
LeftShoulder1  0 -2.42657e-020 -4.95415e-022
LeftArm  -10.1121 14.5926 -82.501
LeftForeArm  -144.186 -33.236 -6.1737
LeftHand  9.3537 -26.5017 -38.6936
RightShoulder  0 2.42657e-020 1.07489e-018
RightArm  -56.9237 11.033 64.0423
RightForeArm  32.3555 70.7935 30.6363
RightHand  1.8941 25.664 8.67369
LeftUpLeg  2.60372 -2.90931 -8.04138
LeftLeg  22.0026 0.358244 0.116001
LeftFoot  -5.03656 -0.00324513 -0.0737946
LeftToes  23.4645 1.18758e-006 1.19596e-007
460
root  33.2611 32.509 -64.0185 179.182 -52.2277 -162.697
RightUpLeg  -29.0396 8.51532 -6.42338
RightLeg  12.072 -7.28815 -1.06922
RightFoot  -2.55609 -0.00249302 0.265876
RightToes  -34.5594 -0.176545 -0.282373
Spine  4.06786 -4.2031 3.41426
Spine1  7.86627 -8.04625 4.55006
HEad  33.9914 27.2192 -5.4263
LeftShoulder1  0 -2.42657e-020 -4.95415e-022
LeftArm  -10.9172 14.4103 -83.7549
LeftForeArm  -145.761 -33.8382 -6.32313
LeftHand  9.63529 -26.6501 -39.5545
RightShoulder  0 2.42657e-020 1.07489e-018
RightArm  -48.8571 9.44476 67.5557
RightForeArm  55.4712 76.2663 46.7097
RightHand  0.502366 25.8419 2.56013
LeftUpLeg  4.56482 -2.3419 -6.10654
LeftLeg  23.3317 -0.792872 -0.28589
LeftFoot  -1.7899 0.000183306 0.0117254
LeftToes  18.1192 1.18758e-006 1.19596e-007
461
root  31.7449 32.018 -65.8508 177.798 -53.5373 -161.854
RightUpLeg  -31.5373 8.20629 -6.17601
RightLeg  10.3881 -3.76002 -0.439935
RightFoot  -3.64668 -0.00618349 0.183343
RightToes  -37.5242 -0.199013 -0.300714
Spine  4.34951 -4.44468 3.27096
Spine1  8.36796 -8.50583 4.08085
HEad  32.1264 28.3975 -6.54025
LeftShoulder1  0 -2.42657e-020 -4.95415e-022
LeftArm  -12.6519 13.73 -84.8464
LeftForeArm  -148.371 -33.4507 -6.22385
LeftHand  10.1828 -27.3897 -40.5466
RightShoulder  0 2.42657e-020 1.07489e-018
RightArm  -40.1494 8.66041 70.9412
RightForeArm  79.6651 78.8624 64.788
RightHand  -0.763613 27.1963 -2.78671
LeftUpLeg  5.17946 -2.98672 -5.1186
LeftLeg  29.953 -0.441684 -0.221724
LeftFoot  0.0127394 -2.69265e-006 0.0242192
LeftToes  14.4491 1.18758e-006 1.19596e-007
462
root  30.1908 31.1984 -67.774 174.008 -54.9295 -159.653
RightUpLeg  -32.8318 9.50964 -5.08193
RightLeg  16.5933 -4.73307 -1.0828
RightFoot  -2.09914 -0.00435981 0.139621
RightToes  -42.1692 -0.236039 -0.327045
Spine  5.0817 -4.25254 3.26951
Spine1  9.76737 -8.02812 3.63852
HEad  31.0892 27.8684 -6.61709
LeftShoulder1  0 -2.42657e-020 -4.95415e-022
LeftArm  -13.769 12.1259 -85.7126
LeftForeArm  -149.94 -32.7737 -6.05492
LeftHand  10.3234 -27.8547 -40.4091
RightShoulder  0 2.42657e-020 1.07489e-018
RightArm  -31.3986 8.70663 73.7371
RightForeArm  95.4941 79.4695 73.4089
RightHand  -2.12858 26.7003 -8.58416
LeftUpLeg  3.87184 -3.9537 -3.87958
LeftLeg  42.4227 0.916643 0.729586
LeftFoot  3.57723 -0.00548825 0.175742
LeftToes  7.35385 1.18758e-006 1.19596e-007
463
root  28.6947 30.1117 -69.5989 167.918 -55.4907 -155.925
RightUpLeg  -34.8299 5.99395 -0.912861
RightLeg  32.0396 1.39287 0.740611
RightFoot  1.49899 0.00402738 0.069659
RightToes  -50.8503 -0.310429 -0.367866
Spine  6.3718 -3.19404 3.58173
Spine1  12.274 -5.79581 3.60889
HEad  29.7463 25.6629 -6.82717
LeftShoulder1  0 -2.42657e-020 -4.95415e-022
LeftArm  -13.0382 9.13681 -86.6439
LeftForeArm  -150.85 -32.221 -5.91923
LeftHand  10.4529 -28.0426 -40.6138
RightShoulder  0 2.42657e-020 1.07489e-018
RightArm  -24.0702 10.4399 75.0971
RightForeArm  89.5438 78.2571 58.827
RightHand  -3.76409 27.4463 -14.9606
LeftUpLeg  0.769529 -4.0014 -2.14279
LeftLeg  58.5816 2.14878 3.04379
LeftFoot  10.621 -0.0857203 0.922171
LeftToes  -3.54453 1.18758e-006 1.19596e-007
464
root  27.0944 29.19 -71.0989 161.034 -57.1754 -150.857
RightUpLeg  -34.6196 1.65715 2.25218
RightLeg  43.6696 2.9456 2.43828
RightFoot  -2.76325 -0.0118586 -0.114157
RightToes  -51.4352 -0.315652 -0.370206
Spine  7.69076 -2.38831 4.22834
Spine1  14.8298 -4.29904 4.50238
HEad  28.8137 22.1046 -6.10428
LeftShoulder1  0 -2.42657e-020 -4.95415e-022
LeftArm  -12.2794 5.20485 -88.7235
LeftForeArm  -151.221 -30.298 -5.46104
LeftHand  10.7475 -27.753 -42.0696
RightShoulder  0 2.42657e-020 1.07489e-018
RightArm  -17.4811 15.2597 74.8058
RightForeArm  70.8663 69.9977 29.1048
RightHand  -6.03832 27.0182 -24.3996
LeftUpLeg  -5.21553 -5.02709 -0.319089
LeftLeg  74.8268 0.387642 1.11467
LeftFoot  8.40399 -0.0323405 0.440173
LeftToes  -16.6131 1.18758e-006 1.19596e-007
465
root  25.5436 28.576 -72.3606 155.517 -61.2846 -145.813
RightUpLeg  -32.4433 -1.75532 3.21915
RightLeg  49.6581 1.60738 1.61716
RightFoot  -10.4341 -0.0626306 -0.308396
RightToes  -49.3397 -0.297053 -0.368025
Spine  7.97364 -1.82346 4.51056
Spine1  15.4022 -3.15888 5.12703
HEad  29.1974 17.3855 -5.23454
LeftShoulder1  0 -2.42657e-020 -4.95415e-022
LeftArm  -10.3704 3.31215 -90.1022
LeftForeArm  -149.67 -30.0279 -5.39901
LeftHand  10.7598 -27.446 -42.5566
RightShoulder  0 2.42657e-020 1.07489e-018
RightArm  -12.5148 20.9148 74.9897
RightForeArm  63.0922 52.0849 13.0587
RightHand  -7.13988 27.4589 -28.2853
LeftUpLeg  -14.829 -6.53763 1.14217
LeftLeg  88.3151 0.0261809 0.205463
LeftFoot  -0.608725 0.00149262 0.280969
LeftToes  -7.40008 1.18758e-006 1.19596e-007
466
root  23.7905 28.362 -73.3305 151.725 -65.6081 -141.976
RightUpLeg  -29.0461 -4.7839 2.62311
RightLeg  51.7835 0.442036 0.440551
RightFoot  -15.1276 -0.0432861 0.0515674
RightToes  -49.3842 -0.297446 -0.3643
Spine  8.65848 0.372249 4.74113
Spine1  17.0112 2.52635 3.23149
HEad  30.9127 12.3202 -3.95462
LeftShoulder1  0 -2.42657e-020 -4.95415e-022
LeftArm  -7.84256 1.30057 -91.4774
LeftForeArm  -150.102 -30.9803 -5.62198
LeftHand  10.6562 -27.1395 -42.6313
RightShoulder  0 2.42657e-020 1.07489e-018
RightArm  -11.7437 26.7619 73.4902
RightForeArm  61.1968 31.9123 6.25089
RightHand  -5.49704 28.106 -21.3485
LeftUpLeg  -25.1123 -5.6328 1.55109
LeftLeg  95.4493 -0.177145 5.94258
LeftFoot  -8.31633 -0.0180932 -0.248879
LeftToes  -3.02065 1.18758e-006 1.19596e-007
467
root  21.7734 28.6849 -73.9787 151.284 -69.7445 -142.129
RightUpLeg  -22.6178 -8.13819 -0.00575044
RightLeg  48.8185 0.269086 0.227531
RightFoot  -17.1744 -0.0335021 0.155697
RightToes  -49.7484 -0.300656 -0.363316
Spine  9.35242 2.83879 4.11907
Spine1  17.9947 8.52947 1.08165
HEad  34.2665 4.43763 -0.726906
LeftShoulder1  0 -2.42657e-020 -4.95415e-022
LeftArm  -5.1099 -0.840591 -92.5102
LeftForeArm  -148.73 -29.5014 -5.27803
LeftHand  10.4352 -26.6566 -42.5374
RightShoulder  0 2.42657e-020 1.07489e-018
RightArm  -24.8139 30.0671 72.4312
RightForeArm  63.2668 18.2739 3.2806
RightHand  -2.22166 28.8093 -8.26628
LeftUpLeg  -33.3328 -4.33509 -0.414959
LeftLeg  94.9522 -0.165084 7.70924
LeftFoot  -14.3645 -0.150206 -1.19194
LeftToes  6.61742 1.18758e-006 1.19596e-007
468
root  19.525 29.4359 -74.4512 151.504 -73.9265 -142.925
RightUpLeg  -13.741 -8.95263 -2.91837
RightLeg  41.2667 -0.961821 -0.765048
RightFoot  -15.3668 0.0237695 0.553762
RightToes  -51.1925 -0.313482 -0.369241
Spine  9.31831 4.64472 3.00834
Spine1  17.2324 12.4645 -0.0763392
HEad  38.7039 -5.44194 4.21161
LeftShoulder1  0 -2.42657e-020 -4.95415e-022
LeftArm  -4.52539 -1.57431 -93.2799
LeftForeArm  -142.945 -26.9558 -4.71226
LeftHand  9.96442 -26.0206 -41.7215
RightShoulder  0 2.42657e-020 1.07489e-018
RightArm  -51.5341 29.3456 69.1974
RightForeArm  79.6562 5.32247 0.850987
RightHand  0.475689 24.8035 2.53365
LeftUpLeg  -38.8503 -4.4117 -2.6917
LeftLeg  87.9368 0.579758 5.67517
LeftFoot  -16.0545 -0.136149 -0.965409
LeftToes  7.2058 1.18758e-006 1.19596e-007
469
root  17.2271 30.3659 -74.7228 151.367 -78.1922 -142.485
RightUpLeg  -6.31244 -6.75229 -4.78375
RightLeg  34.3386 -4.39644 -2.61436
RightFoot  -8.27847 0.041818 0.955467
RightToes  -55.6207 -0.353683 -0.385369
Spine  8.31967 5.31955 1.50369
Spine1  14.8145 13.5255 -1.18605
HEad  41.3833 -14.8502 10.1365
LeftShoulder1  0 -2.42657e-020 -4.95415e-022
LeftArm  -5.98481 -0.257156 -92.2482
LeftForeArm  -141.082 -26.1174 -4.53206
LeftHand  9.74987 -25.8124 -41.2109
RightShoulder  0 2.42657e-020 1.07489e-018
RightArm  -46.6498 19.8422 68.188
RightForeArm  60.7224 2.96131 0.484127
RightHand  0.430672 19.0879 2.93209
LeftUpLeg  -42.3616 -5.67312 -4.84296
LeftLeg  75.4874 1.16814 3.52829
LeftFoot  -16.012 -0.0930352 -0.66148
LeftToes  8.46455 1.18758e-006 1.19596e-007
